<?xml version="1.0" encoding="utf-8"?>
<!-- Generator: Adobe Illustrator 23.0.3, SVG Export Plug-In . SVG Version: 6.00 Build 0)  -->
<svg version="1.1" xmlns="http://www.w3.org/2000/svg" xmlns:xlink="http://www.w3.org/1999/xlink" x="0px" y="0px"
	 viewBox="0 0 260 260" style="enable-background:new 0 0 260 260;" xml:space="preserve">
<style type="text/css">
	.st0{fill:#262262;}
	.st1{fill:#1D64A9;}
	.st2{fill:#252666;}
	.st3{fill:#1E60A5;}
	.st4{fill:#1B75BB;}
	.st5{fill:#1D68AE;}
	.st6{fill:#1C6CB1;}
	.st7{fill:#233778;}
	.st8{fill:#1C70B7;}
	.st9{fill:#1E5DA2;}
	.st10{fill:#205296;}
	.st11{fill:#1F599D;}
	.st12{fill:#252B6B;}
	.st13{fill:#204B8E;}
	.st14{fill:#204F92;}
	.st15{fill:#243374;}
	.st16{fill:#1F569A;}
	.st17{fill:#243071;}
	.st18{fill:#205094;}
	.st19{fill:#223E80;}
	.st20{fill:#1E5EA2;}
	.st21{fill:#233779;}
	.st22{fill:#224285;}
	.st23{fill:#214689;}
	.st24{fill:#204C90;}
	.st25{fill:#223E81;}
	.st26{fill:#242F70;}
	.st27{fill:#242D6E;}
	.st28{fill:#224284;}
	.st29{fill:#233B7D;}
	.st30{fill:#233A7B;}
	.st31{fill:#1C6EB4;}
	.st32{fill:#21498C;}
	.st33{fill:#1F5499;}
	.st34{fill:#252868;}
	.st35{fill:#1F589C;}
	.st36{fill:#1F5498;}
	.st37{fill:#205195;}
	.st38{fill:#214688;}
	.st39{fill:#252A6B;}
	.st40{fill:#1E5CA1;}
	.st41{fill:#1E5FA4;}
	.st42{fill:#21488B;}
	.st43{fill:#1D63A8;}
	.st44{fill:#1E67AC;}
	.st45{fill:#FEFEFE;}
	.st46{fill:#233A7C;}
	.st47{fill:#214587;}
	.st48{fill:#223C7E;}
	.st49{fill:#204E91;}
	.st50{fill:#214B8E;}
	.st51{fill:#224183;}
	.st52{fill:#23387A;}
	.st53{fill:#204B8F;}
	.st54{fill:#224486;}
	.st55{fill:#234486;}
	.st56{fill:#264182;}
</style>
<g id="Layer_2">
</g>
<g id="Layer_1">
	<g>
		<path class="st0" d="M115.58,253.84c-4.64-2.15-9.79-1.97-14.64-3.18c-23.47-5.84-43.84-17.02-60.55-34.64
			c0.55-3.16,3.18-2.87,5.31-2.96c6.84-0.29,13.7-0.53,20.54-0.66c11.29-0.22,22.57-0.73,33.84-1.17
			c17.71-0.7,35.44-0.93,53.13-2.15c7.77-0.53,15.58-0.53,23.36-0.73c11.68-0.3,23.35-1.47,35.05-1.04c2.57,0.1,5.09-0.5,7.63-0.57
			c2.09-0.06,4.5-0.24,4.67,2.93c-14.3,17.47-32.3,29.63-53.48,37.18c-9.01,3.21-18.27,5.45-27.84,6.18
			c-0.57,0.04-1.04,0.17-1.18,0.8C132.81,253.84,124.19,253.84,115.58,253.84z"/>
		<path class="st1" d="M230.91,59.19c2.23,2.75,4.15,5.7,5.65,8.91c-1.32,2.48-3.54,1.44-5.38,1.18
			c-16.63-2.33-33.23-4.87-49.84-7.35c-43.05-6.44-86.11-12.89-129.15-19.4c-2.7-0.41-5.74-0.22-7.74-2.75
			c2.71-2.69,5.44-5.37,8.77-7.34c4.75-0.37,9.33,0.93,13.95,1.61C120.62,42.04,174.05,50.22,227.53,58
			C228.75,58.18,229.91,58.45,230.91,59.19z"/>
		<path class="st2" d="M223.92,209.68c-1.22-2.69-3.66-2.12-5.61-1.66c-2.28,0.53-4.52,0.66-6.79,0.58
			c-11.96-0.41-23.89,0.71-35.83,1c-14.47,0.35-28.93,1.04-43.4,1.56c-14.6,0.53-29.2,1.1-43.81,1.61
			c-14.47,0.51-28.92,1.54-43.41,1.49c-1.8-0.01-3.5,0.16-4.68,1.76c-2.1-2.03-4.51-3.78-5.8-6.53c1.41-2.13,3.65-2.09,5.78-2.06
			c10.2,0.15,20.37-0.7,30.55-0.99c14.86-0.42,29.73-1.1,44.59-1.62c6.28-0.22,12.57-0.67,18.87-0.64c1.81,0.01,3.41-0.64,5.07-1.15
			c0.51-0.16,1.03-0.33,1.56-0.31c9.78,0.31,19.4-0.77,28.88-3.14c8.68,0.01,17.37-0.22,26.04-0.61c3.07-0.14,6.14-0.63,9.22-0.47
			c6.99,0.36,13.91-0.77,20.87-0.76c2,0,4.5-0.39,5,2.67C229.04,203.78,226.73,206.92,223.92,209.68z"/>
		<path class="st3" d="M44.45,39.78c9.61,2.35,19.48,3.19,29.21,4.82c9.86,1.65,19.78,2.97,29.68,4.44
			c11.87,1.76,23.75,3.52,35.62,5.3c11.61,1.74,23.21,3.52,34.82,5.25c11.87,1.77,23.75,3.5,35.63,5.25
			c7.92,1.17,15.85,2.26,23.74,3.57c1.27,0.21,2.33,0.41,3.42-0.31c1.75,2.5,3.26,5.12,4.19,8.05c-1.75,1.62-3.79,0.93-5.74,0.65
			c-28.66-4.24-57.29-8.63-85.95-12.83c-2-0.29-3.99-0.53-6-0.17c-6.74-1.59-13.23-4.15-20.12-5.15c-8.06-1.16-16.21-1.16-24.3-1.96
			c-3.72-1.68-7.71-2.2-11.69-2.77c-14.34-2.06-28.64-4.32-42.97-6.43c-1.84-0.27-3.78-0.37-5.09-2.02
			C40.47,43.3,42.34,41.43,44.45,39.78z"/>
		<path class="st4" d="M88.89,13.07c8.3-3.6,17.13-5.21,26-6.22c22.87-2.6,44.89,0.77,65.88,10.37c7.56,3.46,14.88,7.36,21.35,12.68
			c-1.12,3.34-3.88,2.17-5.97,1.86c-7.44-1.1-14.9-2.1-22.34-3.24c-26.04-3.97-52.09-7.81-78.13-11.8
			C93.09,16.32,89.83,16.73,88.89,13.07z"/>
		<path class="st5" d="M230.91,59.19c-11.4-0.28-22.49-2.94-33.73-4.47c-11.9-1.62-23.77-3.46-35.65-5.24
			c-11.61-1.74-23.22-3.56-34.83-5.3c-11.75-1.76-23.51-3.44-35.25-5.2c-9.77-1.46-19.53-2.97-29.29-4.48
			c-3.03-0.47-6.18-0.4-8.94-2.05c2.3-2.37,4.97-4.21,7.91-5.69c2.27-0.79,4.52-0.24,6.77,0.1c44.08,6.7,88.19,13.2,132.28,19.84
			c6.51,0.98,13.01,1.98,19.52,2.92c1.73,0.25,3.46,0.53,5,1.45C227.12,53.51,229.16,56.24,230.91,59.19z"/>
		<path class="st6" d="M224.7,51.08c-7.39-0.05-14.57-1.76-21.84-2.79c-11.89-1.7-23.77-3.48-35.65-5.26
			c-11.62-1.74-23.22-3.55-34.84-5.29c-11.75-1.76-23.52-3.38-35.26-5.22c-12-1.88-24.09-3.22-35.98-5.74
			c2.26-2.04,4.88-3.49,7.64-4.72c4.36-0.81,8.46,0.92,12.63,1.54c30.13,4.44,60.24,8.99,90.36,13.46
			c14.6,2.17,29.16,4.61,43.8,6.44c1.23,0.15,2.36,0.5,3.41,1.15C221.29,46.42,223,48.74,224.7,51.08z"/>
		<path class="st7" d="M17.06,181.9c-1.26-1.85-2.15-3.86-2.56-6.07c-0.74-2.05,0.64-2.62,2.17-3.01c1.56-0.39,3.16-0.77,4.75-0.77
			c14.06-0.06,28.09-1.46,42.16-1.07c0.41,0.01,0.78,0.17,1.16,0.29c1.17,1.65,2.27,3.14,4.73,3.13c14.1-0.1,28.21,0.04,42.31-0.1
			c0.54-0.01,1.06-0.19,1.57-0.33c8.79-1.22,17.51-2.72,25.78-6.15c0.87-0.36,1.8-0.52,2.76-0.5c3.3,0.83,6.57,0.07,9.86-0.08
			c5.12-0.22,10.3-1.02,15.37,0.58c1.59,1.84,0.6,3.56-0.41,5.14c-1.95,3.05-4.74,5.08-8.17,6.21c-7.63,2.51-15.12,2.11-22.3-1.46
			c-2.57-1.28-4.97-1.55-7.73-0.86c-7.86,1.99-15.88,2.44-23.97,2.26c-4.55-0.1-9.12-0.27-13.68,0.24
			c-16.98,0.83-33.98,0.94-50.94,2.02C32.31,181.88,24.67,181.35,17.06,181.9z"/>
		<path class="st8" d="M88.89,13.07c3.16,3.23,7.53,2.53,11.35,3.17c15.93,2.65,31.92,4.91,47.89,7.31
			c16.23,2.44,32.46,4.91,48.71,7.25c1.72,0.25,3.78,0.88,5.28-0.91c3.75,2.37,7.2,5.11,10.26,8.32c-1.49,2.08-3.61,1.43-5.55,1.16
			c-11.97-1.64-23.9-3.53-35.85-5.29c-28.13-4.15-56.25-8.39-84.37-12.68c-3.4-0.52-7.44,0.17-9.85-3.43
			C80.51,15.61,84.65,14.23,88.89,13.07z"/>
		<path class="st9" d="M143.04,63.05c3.58-1.89,7.18-0.14,10.61,0.34c17.04,2.37,34.01,5.25,51.02,7.79
			c12.01,1.79,24.05,3.33,36.07,4.98c1.61,2.18,2.58,4.66,3.24,7.27c-1.74,1.6-3.78,1.06-5.75,0.76
			c-24.22-3.62-48.45-7.25-72.67-10.88c-2.12-0.32-4.24-0.86-6.39-0.25c-0.38,0.12-0.85,0.34-1.16,0.16
			C152.81,70.13,147.54,67.16,143.04,63.05z"/>
		<path class="st10" d="M248.7,97.15c1.04,2.59,1.75,5.25,1.87,8.05c-1.71,1.64-3.76,1.1-5.73,0.81
			c-24.2-3.55-48.37-7.32-72.59-10.78c-2.87-2.35-4.37-5.18-3.17-8.98c1.76-1,3.65-0.77,5.51-0.51
			c24.11,3.42,48.14,7.38,72.27,10.67C247.53,96.5,248.17,96.69,248.7,97.15z"/>
		<path class="st11" d="M158.33,73.07c0.57-2.7,2.65-1.8,4.2-1.58c15.82,2.32,31.63,4.69,47.43,7.11
			c9.74,1.49,19.46,3.14,29.21,4.64c1.58,0.24,3.21,0.12,4.82,0.17c1.5,2.5,2.34,5.25,3.07,8.04c-3.81,1.05-7.47-0.31-11.13-0.85
			c-21.67-3.23-43.34-6.44-65-9.69c-1.74-0.26-3.48-0.3-5.22-0.25C161.51,79.82,159.79,76.58,158.33,73.07z"/>
		<path class="st12" d="M231.02,200.4c-3.55-2.96-7.65-1.04-11.5-1.24c-1.03-0.05-2.1,0.57-3.14,0.53
			c-12.35-0.5-24.64,1.35-36.98,0.83c-3.29-0.14-6.58,1.7-9.85-0.04c-0.02-0.28-0.05-0.65,0.13-0.76
			c5.33-3.18,10.17-7.14,15.76-9.93c8.61-0.13,17.19-0.77,25.79-0.95c6.86-0.14,13.69-0.5,20.54-0.79c2.07-0.09,4.86-0.44,5.07,3.02
			C235.36,194.48,233.39,197.56,231.02,200.4z"/>
		<path class="st13" d="M251.94,113.28c1.32,5.33,1.12,10.75,0.9,16.17c-4.23,1.93-8.49,1.76-12.76,0.14
			c-0.59-2.86,1.98-3.25,3.49-4.46c1.79-1.52,3.99-2.56,6.01-4.91c-5.09-1.31-9.7-1.89-14.28-2.56c-18.86-2.76-37.7-5.72-56.57-8.45
			c-1.58-0.23-3.21-0.39-4.61-1.34c-1.84-2.1-1.92-4.37-0.67-6.77c1.44-1.15,3.06-0.75,4.64-0.51c22.73,3.43,45.48,6.77,68.22,10.18
			C248.36,111.07,250.74,110.96,251.94,113.28z"/>
		<path class="st14" d="M251.94,113.28c-7.58-2.27-15.49-2.63-23.23-3.95c-11.83-2.02-23.74-3.59-35.62-5.33
			c-6.47-0.95-12.93-1.87-19.4-2.81c-2.72-1.55-2.55-3.85-1.62-6.34c2.26-1.92,4.71-0.22,6.82,0.08c20.46,2.92,40.86,6.29,61.31,9.3
			c3.41,0.5,6.84,1.47,10.37,0.96C251.47,107.81,252.01,110.5,251.94,113.28z"/>
		<path class="st15" d="M17.06,181.9c1.43-1.11,3.1-1.61,4.86-1.53c11.95,0.55,23.88-0.47,35.78-1.08
			c9.61-0.49,19.29,0.38,28.85-1.31c1.57-0.28,3.23-0.26,4.67,0.75c2.85,0.16,4.68,2.11,6.62,3.81c1.02,0.89,1.41,1.91-0.12,2.78
			c-1.33,0.73-2.8,1.07-4.27,1.03c-7.66-0.21-15.26,0.88-22.93,0.99c-14.89,0.21-29.76,1.11-44.64,1.53
			c-1.88,0.05-3.76,0.04-5.59-0.49C18.83,186.41,17.73,184.26,17.06,181.9z"/>
		<path class="st16" d="M164.77,80.36c3.73-2.66,7.6-0.37,11.22,0.08c14.01,1.75,27.97,3.97,41.91,6.26
			c9.72,1.6,19.55,2.46,29.16,4.75c-0.49,2.2,1.66,3.63,1.64,5.69c-4.43,1.01-8.69-0.47-12.97-1.06
			c-14.09-1.93-28.14-4.13-42.2-6.23c-8.28-1.24-16.46-3.25-24.91-3.13C165.82,85.53,164.63,83.35,164.77,80.36z"/>
		<path class="st17" d="M20.28,188.38c0.59-0.25,1.19-0.73,1.78-0.73c7.11,0.11,14.18-0.47,21.27-0.78
			c16.86-0.75,33.73-1.13,50.6-1.72c1.58-0.06,3.15-0.52,4.73-0.79c3.66-0.14,5.87,2.57,8.46,4.44c1.04,0.75,0.39,1.59-0.6,2.07
			c-1.9,0.75-3.9,1.19-5.91,1.13c-10.35-0.33-20.66,0.67-30.99,1.03c-15.14,0.53-30.32,0.55-45.42,2.07
			C22.17,193.28,21.28,190.8,20.28,188.38z"/>
		<path class="st18" d="M5.77,128.65c0.04-2.43,0.07-4.86,0.11-7.29c0.61-1.43,1.92-1.74,3.25-2.01c2.23-0.44,4.48-0.89,6.77-0.79
			c11.25,0.46,22.45-1.27,33.7-0.85c1.75,0.07,3.47-0.24,5.16-0.64c4.81,0.57,7.65,4.01,10.59,7.31c0.23,1.28,0.16,2.46-1.09,3.25
			c-1.11,0.56-2.32,0.7-3.52,0.65c-10.7-0.45-21.35,1.16-32.05,0.86c-5.89-0.17-11.7,1.23-17.61,0.81
			C9.24,129.8,7.31,130.05,5.77,128.65z"/>
		<path class="st19" d="M11.23,166.66c-1.32-2.83-2.1-5.8-2.37-8.91c1.51-1.53,3.47-1.25,5.32-1.29c3.76-0.09,7.53-0.43,11.27-0.49
			c11.83-0.19,23.62-1.4,35.46-1.11c1.35,0.03,2.7,0.13,3.85,0.97c1.57,2.79,1.39,5.62,0.21,8.48c-2.39,1.89-5.25,1.91-8.07,1.93
			c-13.84,0.11-27.66,0.73-41.47,1.46C13.91,167.78,12.48,167.62,11.23,166.66z"/>
		<path class="st20" d="M64.49,164.2c0-2.69,0-5.39,0.01-8.08c-1.59-2.51-0.89-5.29-0.97-7.98c-0.07-2.44-0.09-4.87,0-7.31
			c-0.07-2.19-0.08-4.38,0-6.57c0.06-2.44-0.54-4.97,0.99-7.21c0-1.12,0.01-2.24,0.01-3.37c-1.7-3.3-0.92-6.84-1-10.29
			c-0.05-2.94-0.13-5.88,0-8.82c-0.05-2.18-0.1-4.35,0.01-6.53c-0.02-2.16-0.11-4.32,0-6.47c-0.06-1.91-0.07-3.83,0-5.74
			c-0.07-2.39-0.08-4.79,0-7.18c-0.05-1.91-0.08-3.83-0.02-5.74c0.04-2.6-0.11-5.2,0.03-7.8c-0.07-7.89-0.07-7.89-8.07-8.99
			c-5.46-0.74-10.89-1.66-16.34-2.48c-1.93-0.29-4.11-0.36-5.17-2.54c1.38-2.11,2.96-4.04,4.92-5.63
			c17.68,2.69,35.37,5.34,53.03,8.12c2.31,0.36,4.86,0.41,6.7,2.32c-1.62,1.64-3.73,1.3-5.71,1.32c-7.13,0.07-14.25-0.03-21.38,0.05
			c-4.21,0.05-4.69,0.47-4.69,4.64c-0.05,35.63-0.05,71.26,0,106.89c0.01,4.11,0.48,4.53,4.76,4.55c12.1,0.06,24.2-0.01,36.3,0.05
			c2.08,0.01,4.37-0.46,6.02,1.48c-1.17,0.98-2.57,0.58-3.87,0.58c-13.8,0.05-27.61-0.05-41.4,0.15c-3.25,0.05-4.39-1.07-4.13-4.09
			C63.04,169.09,63.12,166.65,64.49,164.2z"/>
		<path class="st21" d="M248.14,164.21c-0.39,2.84-1.26,5.52-2.58,8.05c-3.39,1.99-7.22,2.06-10.89,1.97
			c-11.79-0.28-23.51,1.36-35.29,0.89c-2.29-0.09-4.48,0.85-6.77,0.6c-1.65-3.81-0.67-7.22,1.6-10.44c4.02-1.27,8.27-1.4,12.35-1.38
			c11.97,0.04,23.89-1.36,35.86-0.99C244.39,162.98,246.5,162.6,248.14,164.21z"/>
		<path class="st22" d="M64.5,148.04c0,2.69,0,5.39,0,8.08c-12.56,0.27-25.14,0.15-37.65,0.97c-6.01,0.39-11.99,0.43-17.99,0.66
			c-1.08-2.59-1.74-5.26-1.57-8.09c1-1.11,2.36-1.23,3.7-1.24c15.81-0.16,31.6-1.06,47.39-1.64
			C60.48,146.7,62.73,146.36,64.5,148.04z"/>
		<path class="st15" d="M192.52,175.5c1.5-0.92,3.01-1.62,4.87-1.65c12.46-0.21,24.93-0.56,37.39-0.74
			c3.62-0.05,7.13-1.37,10.78-0.84c-1.08,4-2.68,7.78-4.77,11.35c-3.3-1.52-6.75-1.16-10.24-0.98c-12.28,0.62-24.56,1.28-36.86,1.34
			c-1.07,0.01-2.14-0.09-3.14-0.54C188.44,180.1,190.3,177.75,192.52,175.5z"/>
		<path class="st23" d="M64.5,148.04c-11.22-0.34-22.42,0.67-33.62,1.05c-7.86,0.27-15.73,0.23-23.59,0.57
			c-1-1.99-0.79-4.13-0.84-6.25c-0.33-0.52-0.26-0.98,0.22-1.37c1.04-0.72,2.25-0.9,3.46-0.88c8.06,0.16,16.05-1.18,24.13-0.92
			c8.18,0.26,16.33-1.28,24.53-0.75c1.97,0.13,4.08-0.31,5.72,1.28C64.51,143.2,64.5,145.62,64.5,148.04z"/>
		<path class="st24" d="M64.51,127.05c0,2.42,0,4.84,0,7.26c-1.26,1.3-2.92,1.23-4.5,1.24c-14.83,0.09-29.65,0.75-44.46,1.55
			c-3.23,0.18-6.71,0.98-9.72-1.19c-0.4-2.42-0.3-4.84-0.05-7.27c11.55,0.36,23.08-0.67,34.61-1.06
			C48.43,127.32,56.47,127.32,64.51,127.05z"/>
		<path class="st25" d="M251.32,149.66c0.09,2.86-0.53,5.58-1.57,8.22c-1.05,0.22-2.1,0.32-3.18,0.31
			c-15.77-0.15-31.5,1.03-47.25,1.53c-2.77,0.09-4.06,1.52-5.2,3.57c-1.34,0.48-1.72-0.58-1.83-1.42c-0.41-3.11-1.39-6.19-0.61-9.38
			c0.96-2.01,2.82-2.39,4.74-2.43c16.53-0.38,33.03-1.61,49.57-1.67C247.84,148.38,249.81,148.15,251.32,149.66z"/>
		<path class="st26" d="M189.94,182.76c12.34,0.48,24.62-1.15,36.96-0.95c3.67,0.06,7.42-0.72,11.17-0.7
			c1.81,0.01,2.86,0.52,2.71,2.49c-0.88,2.72-2.21,5.2-3.94,7.47c-2.87-3.53-6.67-1.36-10.07-1.61c-1.03-0.07-2.09,0.5-3.14,0.53
			c-13.14,0.3-26.27,0.56-39.41,0.83C185.02,187.37,186.88,184.64,189.94,182.76z"/>
		<path class="st27" d="M24.2,195.1c0.6-1.46,1.77-1.81,3.24-1.85c7.35-0.23,14.7-0.55,22.05-0.79c17.25-0.56,34.51-1.08,51.76-1.63
			c2-0.06,3.87-1.15,5.93-0.79c2.82,0.66,6.24,0.61,5.87,5.01c-4.17,1.79-8.67,1.76-13.01,1.8c-19.03,0.15-38.02,1.65-57.05,1.85
			c-5.18,0.06-10.44,0.44-15.6,1.33C26.03,198.58,24.86,197.01,24.2,195.1z"/>
		<path class="st28" d="M251.32,149.66c-13.14-0.59-26.23,0.89-39.37,0.99c-5.43,0.04-10.93,0.54-16.41,0.6
			c-1.45,0.02-2.67,0.29-3.29,1.76c-2.34-1.11-3-2.91-2.18-5.33c6.45-1.71,12.9-3.44,19.19-5.73c1.27-0.46,2.62-0.54,3.96-0.21
			c7.24,0.27,14.48,0.51,21.69-0.26c4.69-0.5,9.38-0.48,14.06-0.22c1.49,0.08,3.92-0.19,3.13,2.77
			C252.14,145.96,252.31,147.89,251.32,149.66z"/>
		<path class="st29" d="M193.9,163.43c-0.56-3.72,0.78-4.94,4.76-5.01c15.52-0.27,31.02-1.56,46.56-1.47
			c1.53,0.01,3.27-0.62,4.51,0.93c0,2.25-0.69,4.32-1.61,6.33c-13.95-0.63-27.86,1.02-41.81,0.95c-4.08-0.02-8.24,0.63-12.39,0.64
			C193.24,165.02,193.25,164.23,193.9,163.43z"/>
		<path class="st30" d="M64.49,164.2c0,2.44,0.01,4.89,0.01,7.33c-1.03,0.24-2.07,0.74-3.08,0.69c-12.19-0.53-24.31,1.24-36.5,0.9
			c-2.9-0.08-5.83,0.52-8.74,0.79c-1.18,0.11-1.53,0.91-1.69,1.91c-1.71-2.83-2.56-5.97-3.27-9.16
			C28.99,165.84,46.74,165.02,64.49,164.2z"/>
		<path class="st31" d="M76.76,17.97c6.78,2.72,14.08,2.75,21.14,3.99c9.83,1.73,19.74,2.99,29.61,4.45
			c11.98,1.77,23.96,3.52,35.94,5.33c11.58,1.74,23.14,3.66,34.74,5.26c4.69,0.65,9.35,2.09,14.18,1.22
			c1.36,0.77,2.59,1.67,3.19,3.2c-2.54,1.95-5.43,1.25-8.15,0.84c-17.51-2.61-35.04-5.06-52.53-7.8
			c-22.25-3.49-44.57-6.52-66.79-10.25c-3.97-0.67-8-0.89-11.94-1.79c-1.57-0.36-3.19-0.62-4.26-2.03
			C73.34,19.23,74.83,18.16,76.76,17.97z"/>
		<path class="st32" d="M5.82,135.92c11,0.25,21.99-0.62,32.96-1.06c8.58-0.34,17.15-0.25,25.72-0.54c0,2.15,0,4.31,0,6.46
			c-13.68-0.56-27.32,0.88-40.99,1.01c-5.57,0.05-11.21,0.41-16.82,0.61c-1.14-0.86-0.14-2.23-0.77-3.21
			C5.89,138.09,5.86,137,5.82,135.92z"/>
		<path class="st31" d="M71.88,20.39c20.39,3.22,40.76,6.51,61.16,9.65c21.52,3.31,43.05,6.6,64.61,9.63
			c5.92,0.83,11.82,2.4,17.91,1.75c1.03,1.19,2.8,1.6,3.42,3.22c-11.4-0.19-22.48-2.91-33.71-4.4c-12.02-1.59-24.01-3.5-36-5.3
			c-11.47-1.72-22.94-3.48-34.41-5.2c-11.87-1.78-23.74-3.53-35.6-5.29c-3.55-0.53-7.12-1.01-10.48-2.4
			C69.65,21.18,70.63,20.54,71.88,20.39z"/>
		<path class="st33" d="M55.8,117.35c-1.49,1.79-3.55,1.67-5.56,1.59c-12.07-0.46-24.09,1.26-36.16,0.92
			c-2.7-0.08-5.58,0.35-8.19,1.49c0.28-2.7,0.57-5.39,0.85-8.09c1.28-2.44,3.66-2.01,5.71-1.95c9.82,0.26,19.58-1.36,29.4-0.89
			c1.62,0.08,3.21-0.25,4.78-0.62c1.43-0.39,2.58,0.15,3.63,1.05C52.07,113.04,54.74,114.51,55.8,117.35z"/>
		<path class="st34" d="M32.35,207c-0.84-0.12-0.85-0.76-0.87-1.4c-0.85-2.16,0.76-2.7,2.21-2.86c2.14-0.23,4.2-1.04,6.35-0.94
			c10.33,0.46,20.61-0.74,30.92-0.9c16.46-0.25,32.88-1.57,49.35-1.64c0.94,0,1.83-0.43,2.77-0.46c2.35,0.2,4.75,0.31,5.81,3.01
			c-0.4,2.53-2.43,2.63-4.29,2.7c-10.72,0.42-21.44,0.8-32.16,1.21c-18.75,0.72-37.52,1.13-56.26,2.25
			C34.75,208.05,33.54,207.67,32.35,207z"/>
		<path class="st11" d="M33.97,51.1c7.5,2.41,15.39,2.61,23.05,4.06c8.71,1.64,7.79-0.38,7.51,9.71c-1.31,1.26-2.96,1.23-4.55,1
			c-9.83-1.42-19.67-2.78-29.46-4.5c-1.18-0.21-2.41-0.4-3.22-1.46C29.11,56.66,31.43,53.8,33.97,51.1z"/>
		<path class="st35" d="M47.72,110.1c-1.49,1.77-3.54,1.55-5.55,1.6c-10.8,0.25-21.6,0.54-32.4,0.78c-1.11,0.02-2.12,0.22-3.05,0.79
			c0.52-2.95,1.04-5.9,1.56-8.85c1.79-1.61,4.02-1.22,6.1-1.18c8.13,0.14,16.21-0.3,24.26-1.43c0.88-0.3,1.73-0.22,2.54,0.24
			C43.88,104.3,46.39,106.72,47.72,110.1z"/>
		<path class="st12" d="M27.4,200.03c0.19-1.51,1.15-2.04,2.54-1.91c5.51,0.52,10.9-1.07,16.42-0.85
			c11.12,0.43,22.25-0.49,33.32-1.04c10.27-0.51,20.61,0.34,30.83-1.33c1.06-0.17,2.18-0.01,2.77-1.19
			c4.36,0.27,5.64,1.38,4.96,4.33c-1.41,0.9-2.99,1.23-4.61,1.21c-8.57-0.06-17.11,0.66-25.65,1.03
			c-17.37,0.76-34.78,0.7-52.11,2.17c-2.25,0.19-4.55,0.34-6.81-0.11C28.22,201.78,27.62,201.04,27.4,200.03z"/>
		<path class="st36" d="M27.3,59.91c8.31,1.19,16.62,2.36,24.92,3.6c4.09,0.61,8.14,1.54,12.31,1.36c0,2.67,0,5.33,0,8
			c-1.97,0.86-3.98,0.4-5.95,0.09c-10.1-1.58-20.21-3.05-30.32-4.56c-1.84-0.28-3.79-0.36-5.08-2.03
			C24.21,63.98,25.57,61.83,27.3,59.91z"/>
		<path class="st37" d="M23.18,66.35c13.16,1.93,26.33,3.86,39.49,5.82c0.64,0.1,1.25,0.46,1.87,0.69
			c-0.01,1.91-0.01,3.82-0.02,5.73c-1.75,1.56-3.79,0.98-5.76,0.72c-11.99-1.58-23.9-3.8-35.93-5.13c-2.02-0.61-2.42-2-1.83-3.85
			C21.23,68.73,22.16,67.52,23.18,66.35z"/>
		<path class="st38" d="M252.1,144.04c-0.48-2.45-2.45-1.59-3.88-1.64c-10.53-0.31-21.02,1.38-31.56,0.77
			c-1.41-0.08-2.98,0.52-4.16-0.8c-0.28-0.37-0.27-0.73,0.03-1.09c4.02-1.82,8.05-3.62,12.05-5.52c1.85-0.64,3.61-1.66,5.69-1.37
			c6.12,0.58,12.24,0.32,18.36,0.15c1.44-0.04,2.93-0.51,4.22,0.56C252.87,138.11,253.17,141.13,252.1,144.04z"/>
		<path class="st34" d="M32.35,207c9.68-1.79,19.54,0.07,29.25-1.53c2.73-0.45,5.59,0.02,8.39-0.06c7.9-0.24,15.8-0.7,23.7-0.81
			c10.06-0.14,20.08-1.33,30.16-0.91c1.72,0.07,3.84,0.01,4.65-2.25c4.15-1.01,7.84,0.13,11.31,2.37c-1.43,1.12-3.11,1.64-4.86,1.54
			c-8.6-0.48-17.15,0.75-25.73,0.84c-18.1,0.19-36.18,1.29-54.27,1.89c-6.73,0.22-13.7-0.63-20.36,1.42
			C33.84,208.66,33.1,207.83,32.35,207z"/>
		<path class="st39" d="M29.05,202.35c4.36-1.99,9.17-1.61,13.64-1.63c12.33-0.05,24.62-1.15,36.96-1.12
			c11.45,0.02,22.91-0.93,34.37-1.53c1.72-0.09,3.42-0.58,5.12-0.89c1.94,0.12,3.85,0.29,4.76,2.43c-2.31,0.79-4.69,0.99-7.13,0.93
			c-11.14-0.24-22.25,0.68-33.38,0.96c-14.32,0.37-28.63,1.31-42.96,1.59c-2.94,0.06-6.72-0.96-8.93,2.5
			C30.36,204.76,29.54,203.68,29.05,202.35z"/>
		<path class="st40" d="M39.66,101.98c-0.66,1.48-1.95,1.52-3.35,1.66c-9.33,0.95-18.68,0.77-28.03,0.78
			C8.86,102,9.43,99.57,10,97.15c1.69-1.4,3.73-1.12,5.7-1.19c5.82-0.19,11.61-0.71,17.38-1.36c0.4-0.18,0.83-0.27,1.26-0.27
			C36.89,96.34,39.72,98.16,39.66,101.98z"/>
		<path class="st41" d="M34,94.71c-0.2,1.71-1.48,1.66-2.72,1.62c-7.12-0.2-14.16,1.4-21.29,0.82c0.78-2.42,1.56-4.85,2.33-7.27
			c1.03-1.03,2.37-1.18,3.71-1.16c4.39,0.08,8.77-0.23,13.14-0.57C32.29,89.23,34.17,91.21,34,94.71z"/>
		<path class="st42" d="M252.84,135.11c-7.79,1.1-15.59,1.47-23.38,0c0.66-2.85,3.54-3.09,5.37-4.57c1.75-0.51,3.03-2.34,5.13-1.89
			c4.2,1.71,8.6,0.37,12.88,0.81C252.84,131.34,252.84,133.22,252.84,135.11z"/>
		<path class="st43" d="M29.97,89.07c-5.84,1.12-11.75,0.78-17.64,0.81c0.53-2.61,1.52-5.04,2.75-7.39
			c3.18-1.72,6.73-0.82,10.06-1.42c3.29,0.76,3.87,3.82,5.26,6.19C30.54,87.93,30.45,88.55,29.97,89.07z"/>
		<path class="st44" d="M25.93,81.8c-3.55,1.21-7.21,0.81-10.85,0.69c1.55-4.26,3.42-8.36,5.92-12.16c0.22,1.3,0.59,2.53,1.69,3.4
			c1.99,1.72,2.7,4.17,3.72,6.45C26.5,80.79,26.4,81.35,25.93,81.8z"/>
		<path class="st24" d="M5.92,139.18c0.96,0.9,0.45,2.16,0.77,3.21c-0.08,0.34-0.16,0.68-0.24,1.02
			C5.8,142.06,5.78,140.63,5.92,139.18z"/>
		<path class="st45" d="M123.89,199.62c-1.37-1.24-3.52-0.93-4.76-2.43c-1.95-1.16-3.91-2.32-5.86-3.48
			c-2.03-1.22-4.06-2.45-6.09-3.67c-2.6-2.25-5.53-4.01-8.52-5.68c-2.48-1.88-4.97-3.75-7.45-5.63c1.21-1.32,2.78-0.64,4.16-0.64
			c12.07-0.01,24.18,0.45,35.91-3.26c1.68-0.53,2.79,0.48,4.07,1.16c7.64,4,15.57,4.93,23.68,1.74c4.26-1.68,7.76-4.33,8.09-9.5
			c-1.09-5.51-5.02-8.64-9.48-11.32c-4.64-2.68-9.87-3.77-14.85-5.54c-7.5-2.01-14.57-4.97-20.93-9.49c-1.3-0.93-2.56-1.9-3.54-3.18
			c-3-3.67-5.61-7.56-6.81-12.23c-0.44-3.01-1.25-5.98-1.1-9.06c-0.03-1.53-0.01-3.06,0.3-4.57c0.74-2.41,0.59-5.01,1.62-7.36
			c0.8-2.07,1.52-4.18,2.66-6.11c1.86-2.34,2.57-5.49,5.13-7.34c2.28-2.02,4.47-4.14,7.26-6.14c-3.9-2.27-7.79-3.17-11.74-3.6
			c-6.23-0.67-12.48-1.22-18.78-1.12c-3.2,0.05-4.85,0.93-4.44,4.35c0.09,0.79,0.03,1.6,0.04,2.41c0.09,2.27,0.08,4.54,0.03,6.81
			c0.07,2.14,0.07,4.28,0.03,6.41c-0.06,2.17,0.11,4.34,0,6.51c-0.02,2.43,0.11,4.87-0.02,7.3c0.1,3.19,0.1,6.39,0,9.58
			c0.08,3.43,0.11,6.87-0.01,10.3c0.03,1.44,0.11,2.87-0.01,4.3c0,0.54,0.03,1.07,0.04,1.61c0.12,9.23-1.17,8.43,8.81,8.49
			c6.98,0.04,13.97,0.19,20.76-1.86c3.49-1.51,6.69-0.68,9.84,1.12c1.49,0.86,3.2,1.27,4.79,1.92c5.09,1.67,10.21,3.22,15.27,5
			c1.61,0.57,3.43,0.86,4.28,2.67c-2.76,5.57-8.01,7.71-13.38,9.67c-0.47,0.17-1.06,0.03-1.46,0.46
			c-8.88,3.45-17.99,5.98-27.54,6.66c-14.79,0.03-29.59-0.07-44.38,0.18c-3.62,0.06-4.43-0.98-4.41-4.48
			c0.11-36.73,0.1-73.46-0.06-110.19c-0.02-3.64,1.03-4.48,4.51-4.41c9.68,0.19,19.36-0.03,29.04-0.09
			c11.78,0.2,23.55,0.53,34.95,3.96c3.19,0.96,6.32,2.12,9.48,3.18c5.37,2.92,10.65,5.98,15.28,10.03c2.15,2.43,4.29,4.86,6.44,7.29
			c1.29,2.12,2.57,4.25,3.86,6.37c1.15,2.71,2.29,5.41,3.44,8.12c0.05,2.24,0.78,4.3,1.62,6.34c0.27,2.15-0.62,4.47,0.9,6.45
			c0.77,1.89,0.52,2.97-1.82,2.14c-1.01-0.36-1.81-1.15-2.76-1.66c-8.26-4.45-16.63-4.96-25.08-0.55c-1.31,0.69-2.48,1.62-3.24,2.95
			c-2.25,4.53-1.82,8.73,1.17,11.4c0.59,0.53,1.21,1.25,2.08,0.97c0.89-0.28,0.93-1.24,0.99-2.02c0.29-3.47-0.01-6.96,0.17-10.45
			c1.4-5.55,6.31-4.97,10.14-5.17c5.27-0.28,10.33,1.4,14.77,4.49c3.37,2.35,4.94,5.56,4.65,9.66c0.05,0.65,0.01,1.3-0.01,1.95
			c0.04,2.09-0.4,4.11-0.82,6.13c-0.06,0.39-0.14,0.77-0.24,1.16c-1.3,5.16-1.3,5.16,3.33,7.44c4.06,2.09,7.23,5.24,10.28,8.53
			c0.89,0.96,1.82,1.95,1.69,3.43c0.79,1.66,1.59,3.31,2.38,4.97c0.55,3.47,1.1,6.94,1.65,10.42c0.01,0.79,0.02,1.58,0.03,2.37
			c-0.47,3.23-0.95,6.46-1.42,9.7c-0.86,2.42-1.72,4.85-2.58,7.27c-1.9,2.69-3.81,5.38-5.71,8.07c-4.3,4.11-9.35,7.07-14.67,9.64
			c-9.68,3.25-19.66,3.81-29.75,3.33c-3.77-0.79-7.54-1.58-11.31-2.37C126.96,200.84,125.43,200.23,123.89,199.62z"/>
		<path class="st46" d="M141.44,168.23c5.08-2.88,10.24-5.66,14.55-9.7c0.5-0.98,0.25-2.62,2.12-2.36
			c4.48,2.91,9.96,5.09,9.02,12.06c-6.34,0.25-12.72-0.58-19.04,0.75C145.88,169.45,143.61,168.91,141.44,168.23z"/>
		<path class="st42" d="M140.77,110.07c5.59-7.08,13.26-7.24,21.14-6.09c4.52,0.66,8.75,2.38,12.25,5.91
			c0.18-0.96,0.3-1.6,0.42-2.25c8.56,1.2,17.13,2.36,25.68,3.6c11.85,1.73,23.69,3.49,35.52,5.3c4.73,0.72,9.44,1.6,14.17,2.4
			c0.63,0.11,1.45-0.11,1.69,0.72c0.28,0.95-0.5,1.48-1.11,1.94c-2.15,1.58-4.35,3.09-6.53,4.62c-5.71-2.27-11.84-2.4-17.79-3.32
			c-13.7-2.11-27.42-4.07-41.12-6.2c-4.09-0.64-7.96-1.5-10.41,3.04c0.8-5.1-2.12-8.14-6.1-10.27c-6.05-3.23-12.45-3.93-19.12-1.98
			c-1.84,0.54-2.76,1.46-2.5,3.39C144.67,112.41,142.64,111.88,140.77,110.07z"/>
		<path class="st47" d="M174.69,119.74c1.69-5.86,1.67-5.7,7.97-4.71c15.61,2.47,31.25,4.79,46.88,7.15
			c3.94,0.59,7.89,1.15,11.85,1.61c1.57,0.18,2.5,0.81,2.62,2.44c-1.35,0.81-2.69,1.62-4.04,2.43c-1.57,0.9-2.87,2.33-4.85,2.42
			c-9.91-0.56-19.61-2.68-29.42-4.02c-8.62-1.18-17.21-2.53-25.81-3.86c-1.83-0.28-3.76-0.41-5.22-1.8
			C174.68,120.83,174.68,120.28,174.69,119.74z"/>
		<path class="st48" d="M55.8,117.35c-2.19-1.59-4.1-3.46-5.67-5.66c5.09-2.1,9.84-1.25,14.37,1.61c0.01,3.46,0.02,6.92,0.03,10.39
			C61.18,122.17,58.73,119.43,55.8,117.35z"/>
		<path class="st49" d="M25.89,80.19c-1.58-1.9-2.6-4.08-3.21-6.46c0.65-0.9,1.61-0.91,2.53-0.77c11.38,1.76,22.75,3.56,34.13,5.29
			c1.7,0.26,3.45,0.23,5.17,0.33c0,2.42,0,4.84,0,7.27c-1.25,1.17-2.74,0.78-4.18,0.58c-10.17-1.41-20.29-3.09-30.46-4.54
			C28.4,81.69,27.03,81.2,25.89,80.19z"/>
		<path class="st50" d="M25.89,80.19c9.98,1.48,19.96,2.97,29.95,4.44c2.89,0.43,5.78,0.81,8.68,1.22c0,1.88,0,3.77-0.01,5.65
			c-0.93,0.96-2.14,1.08-3.35,0.92c-10.06-1.37-20.09-2.9-30.12-4.47c-0.39-0.06-0.74-0.31-1.09-0.49
			c-1.34-1.89-2.68-3.77-4.02-5.66C25.91,81.26,25.9,80.73,25.89,80.19z"/>
		<path class="st42" d="M29.94,87.46c4.67-0.87,9.14,0.67,13.67,1.24c6.97,0.87,13.86,2.35,20.89,2.81c0,2.15,0,4.3,0,6.45
			c-2.64,1.17-5.25,0.16-7.85-0.18c-7.29-0.94-14.53-2.33-21.85-3.05c-0.27,0-0.53-0.01-0.8-0.02c-1.15-2.02-2.03-4.23-4.03-5.64
			C29.96,88.53,29.95,88,29.94,87.46z"/>
		<path class="st47" d="M34.8,94.73c2.95-2.05,5.95-0.35,8.86,0.04c6.97,0.93,13.9,2.11,20.84,3.19c0,2.16-0.01,4.32-0.01,6.48
			c-1.2,1.19-2.68,1.05-4.15,0.84c-6.35-0.92-12.69-1.88-19.08-2.47c-0.54-0.27-1.07-0.55-1.61-0.82
			C38.04,99.56,36.42,97.14,34.8,94.73z"/>
		<path class="st51" d="M41.27,102.8c2.23-1.52,4.63-0.78,6.97-0.5c5.43,0.66,10.77,1.96,16.26,2.13c0,2.96,0,5.91,0,8.87
			c-4.73-1.06-9.5-1.81-14.37-1.61c-0.8-0.53-1.6-1.06-2.41-1.59C45.13,108.05,43.46,105.2,41.27,102.8z"/>
		<path class="st46" d="M189.87,148.04c-3.36-4.48-7.35-8.26-12.21-11.1c0.26-2.69,2.46-2.23,3.96-2.05
			c9.21,1.08,18.38,2.43,27.5,4.16c1.46,0.28,2.84,0.91,3.39,2.53c0,0.27,0,0.54-0.01,0.8c-4.62,0.72-8.8,2.85-13.27,4.05
			C196.15,147.25,193.13,148.32,189.87,148.04z"/>
		<path class="st51" d="M174.67,121.38c10.13,1.46,20.26,2.91,30.38,4.38c8.42,1.22,16.83,2.49,25.25,3.68
			c1.73,0.24,3.42,0.45,4.81,1.64c-1.89,1.35-3.77,2.69-5.66,4.04c-1.62,0.54-3.23,1.08-4.85,1.61c-15.29-2.04-30.5-4.58-45.77-6.72
			c-1.85-0.26-3.78-0.43-5.01-2.16C174.12,125.69,174.4,123.53,174.67,121.38z"/>
		<path class="st19" d="M173.84,127.84c8.52,1.34,17.04,2.72,25.58,4.02c7.49,1.14,14.99,2.19,22.47,3.32
			c1.06,0.16,2.06,0.6,2.73,1.53c-3.98,1.75-7.56,4.52-12.11,4.85c-4.01-2.49-8.71-2.16-13.09-3.05
			c-5.58-1.13-11.25-1.84-16.91-2.52c-1.59-0.19-3.51-0.78-4.84,0.93C171.95,134.45,171.95,134.45,173.84,127.84z"/>
		<path class="st18" d="M91.48,87.46c-0.38-7.14-0.38-7.09,6.56-7.15c10.77-0.09,21.49,0.08,32.02,5.27
			c-3.75,2.12-6.49,4.99-9.65,7.37c-7.56-1.67-15.28-2.36-22.89-3.72C95.46,88.86,93.22,88.96,91.48,87.46z"/>
		<path class="st15" d="M136.56,151.27c-2.17-0.19-4.12-1.15-5.94-2.17c-2.43-1.36-4.82-1.93-7.47-0.94
			c-3.9,0.97-7.62,0.3-11.41-0.85c-5.51-1.67-11.01-3.35-16.35-5.51c-1.5-0.61-2.97-1.25-3.91-2.66c0-1.34,0-2.68,0-4.02
			c0.93-0.93,2.12-1.13,3.32-0.97c7.64,0.98,15.24,2.25,22.86,3.4c0.51,0.08,0.96,0.45,1.43,0.7c6.8,6.4,15.31,9.46,23.93,12.31
			C141.18,153.62,138.72,151.06,136.56,151.27z"/>
		<path class="st52" d="M119.09,138.23c-7.66,0.58-14.95-1.99-22.47-2.67c-1.7-0.15-3.41-0.4-5.14-0.46c0-3.5,0-7,0-10.5
			c0.7-0.71,1.6-1.14,2.54-1.04c6.23,0.7,12.57,0.81,18.45,3.42C113.97,131.15,116.34,134.8,119.09,138.23z"/>
		<path class="st53" d="M91.48,87.46c9.05,0.9,18.02,2.32,26.96,3.97c0.98,0.18,1.84,0.33,1.98,1.53c-2.24,1.81-2.65,4.89-4.74,6.8
			c-6.74-1.18-13.49-2.27-20.27-3.21c-1.5-0.21-2.89-0.62-3.92-1.82C91.48,92.3,91.48,89.88,91.48,87.46z"/>
		<path class="st19" d="M112.46,126.99c-4.74-0.61-9.53-1.01-14.21-1.91c-2.29-0.44-4.51-0.33-6.77-0.47c0-3.23,0-6.46,0-9.69
			c0.39-0.37,0.85-0.79,1.36-0.75c6.28,0.5,12.64,0.58,18.56,3.17C111.76,120.56,112.11,123.77,112.46,126.99z"/>
		<path class="st54" d="M91.48,139.14c8.17,3.22,16.42,6.14,24.94,8.31c2.26,0.57,4.49,0.4,6.72,0.71
			c-9.88,3.41-20.14,2.2-30.27,2.42c-1.64,0.04-1.54-1.11-1.52-2.19C91.39,145.3,91.44,142.22,91.48,139.14z"/>
		<path class="st42" d="M91.48,94.72c7.11,1.08,14.22,2.2,21.34,3.2c1.33,0.19,2.31,0.58,2.85,1.83c-0.82,1.86-1.64,3.72-2.46,5.58
			c-6.81,0.11-13.41-1.39-20.05-2.57c-0.83-0.15-1.34-0.8-1.69-1.56C91.48,99.04,91.48,96.88,91.48,94.72z"/>
		<path class="st28" d="M111.4,117.34c-6.64-0.81-13.28-1.62-19.92-2.42c0-2.42,0-4.83,0-7.25c6.36-1.08,12.38,0.96,18.49,2.07
			c1.36,0.25,2.4,1.26,1.64,2.98C111.54,114.26,111.47,115.8,111.4,117.34z"/>
		<path class="st47" d="M111.61,112.72c-0.61-2.68-2.93-2.31-4.8-2.63c-5.1-0.85-10.22-1.62-15.33-2.42c0-2.16,0-4.31,0-6.47
			c6.28,1.84,12.85,1.95,19.24,3.19c0.91,0.18,1.89,0.02,2.5,0.95C112.68,107.8,112.15,110.26,111.61,112.72z"/>
		<path class="st55" d="M140.77,110.07c2.09,0.07,4.05,1.2,6.2,0.8c0.48,4.71,0.4,9.39-0.78,14.01
			C139.34,122.78,137.08,116.55,140.77,110.07z"/>
		<path class="st56" d="M136.56,151.27c2.14-0.35,4.44,0.75,6.46-0.72c5.14,1.58,10.48,2.65,15.1,5.62
			c-0.71,0.79-1.41,1.57-2.12,2.36c-5.36-3.2-11.52-4.21-17.27-6.34C137.98,151.92,137.11,152,136.56,151.27z"/>
	</g>
</g>
</svg>
